<?xml version="1.0" encoding="utf-8"?>
<!-- Generator: Adobe Illustrator 23.0.3, SVG Export Plug-In . SVG Version: 6.00 Build 0)  -->
<svg version="1.1" id="Layer_1" xmlns="http://www.w3.org/2000/svg" xmlns:xlink="http://www.w3.org/1999/xlink" x="0px" y="0px"
	 viewBox="0 0 512 512" style="enable-background:new 0 0 512 512;" xml:space="preserve">
<style type="text/css">
	.st0{fill:#020202;}
	.st1{fill:#FFFFFF;}
	.st2{fill:url(#SVGID_1_);}
	.st3{fill:url(#SVGID_2_);}
	.st4{fill:url(#SVGID_3_);}
	.st5{fill:url(#SVGID_4_);}
	.st6{fill:url(#SVGID_5_);}
	.st7{fill:url(#SVGID_6_);}
	.st8{fill:url(#SVGID_7_);}
	.st9{fill:url(#SVGID_8_);}
	.st10{fill:url(#SVGID_9_);}
	.st11{fill:url(#SVGID_10_);}
	.st12{fill:url(#SVGID_11_);}
	.st13{fill:url(#SVGID_12_);}
	.st14{fill:url(#SVGID_13_);}
	.st15{fill:url(#SVGID_14_);}
	.st16{fill:url(#SVGID_15_);}
	.st17{fill:url(#SVGID_16_);}
	.st18{fill:#1B83B8;}
	.st19{fill:url(#SVGID_17_);}
	.st20{fill:url(#SVGID_18_);}
	.st21{fill:url(#SVGID_19_);}
	.st22{fill:url(#SVGID_20_);}
	.st23{fill:url(#SVGID_21_);}
	.st24{fill:url(#SVGID_22_);}
	.st25{fill:url(#SVGID_23_);}
	.st26{fill:url(#SVGID_24_);}
	.st27{fill:url(#SVGID_25_);}
	.st28{fill:url(#SVGID_26_);}
	.st29{fill:url(#SVGID_27_);}
	.st30{fill:url(#SVGID_28_);}
	.st31{fill:url(#SVGID_29_);}
	.st32{fill:url(#SVGID_30_);}
	.st33{fill:url(#SVGID_31_);}
	.st34{fill:url(#SVGID_32_);}
	.st35{fill:url(#SVGID_33_);}
	.st36{fill:url(#SVGID_34_);}
	.st37{fill:url(#SVGID_35_);}
	.st38{fill:url(#SVGID_36_);}
	.st39{fill:url(#SVGID_37_);}
	.st40{fill:url(#SVGID_38_);}
	.st41{fill:url(#SVGID_39_);}
	.st42{fill:url(#SVGID_40_);}
	.st43{fill:url(#SVGID_41_);}
	.st44{fill:url(#SVGID_42_);}
	.st45{fill:url(#SVGID_43_);}
	.st46{fill:url(#SVGID_44_);}
	.st47{fill:url(#SVGID_45_);}
	.st48{fill:url(#SVGID_46_);}
	.st49{fill:url(#SVGID_47_);}
	.st50{fill:url(#SVGID_48_);}
	.st51{fill:url(#SVGID_49_);}
	.st52{fill:url(#SVGID_50_);}
	.st53{fill:url(#SVGID_51_);}
	.st54{fill:url(#SVGID_52_);}
	.st55{fill:url(#SVGID_53_);}
	.st56{fill:url(#SVGID_54_);}
	.st57{fill:url(#SVGID_55_);}
	.st58{fill:url(#SVGID_56_);}
	.st59{fill:url(#SVGID_57_);}
	.st60{fill:url(#SVGID_58_);}
	.st61{fill:url(#SVGID_59_);}
	.st62{fill:url(#SVGID_60_);}
	.st63{fill:url(#SVGID_61_);}
	.st64{fill:url(#SVGID_62_);}
	.st65{fill:url(#SVGID_63_);}
	.st66{fill:url(#SVGID_64_);}
	.st67{fill:url(#SVGID_65_);}
	.st68{fill:url(#SVGID_66_);}
	.st69{fill:url(#SVGID_67_);}
	.st70{fill:url(#SVGID_68_);}
	.st71{fill:url(#SVGID_69_);}
	.st72{fill:url(#SVGID_70_);}
	.st73{fill:url(#SVGID_71_);}
	.st74{fill:url(#SVGID_72_);}
	.st75{fill:url(#SVGID_73_);}
	.st76{fill:url(#SVGID_74_);}
	.st77{fill:url(#SVGID_75_);}
	.st78{fill:url(#SVGID_76_);}
	.st79{fill:url(#SVGID_77_);}
	.st80{fill:url(#SVGID_78_);}
	.st81{fill:url(#SVGID_79_);}
	.st82{fill:url(#SVGID_80_);}
	.st83{fill:url(#SVGID_81_);}
	.st84{fill:url(#SVGID_82_);}
	.st85{fill:url(#SVGID_83_);}
	.st86{fill:url(#SVGID_84_);}
	.st87{fill:url(#SVGID_85_);}
	.st88{fill:url(#SVGID_86_);}
	.st89{fill:url(#SVGID_87_);}
	.st90{fill:url(#SVGID_88_);}
	.st91{fill:url(#SVGID_89_);}
	.st92{fill:url(#SVGID_90_);}
	.st93{fill:url(#SVGID_91_);}
	.st94{fill:url(#SVGID_92_);}
	.st95{fill:url(#SVGID_93_);}
	.st96{fill:url(#SVGID_94_);}
	.st97{fill:url(#SVGID_95_);}
	.st98{fill:url(#SVGID_96_);}
	.st99{fill:url(#SVGID_97_);}
	.st100{fill:url(#SVGID_98_);}
	.st101{fill:url(#SVGID_99_);}
	.st102{fill:url(#SVGID_100_);}
	.st103{fill:url(#SVGID_101_);}
	.st104{fill:url(#SVGID_102_);}
	.st105{fill:url(#SVGID_103_);}
	.st106{fill:url(#SVGID_104_);}
	.st107{fill:url(#SVGID_105_);}
	.st108{fill:url(#SVGID_106_);}
	.st109{fill:url(#SVGID_107_);}
	.st110{fill:url(#SVGID_108_);}
	.st111{fill:url(#SVGID_109_);}
	.st112{fill:url(#SVGID_110_);}
	.st113{fill:url(#SVGID_111_);}
	.st114{fill:url(#SVGID_112_);}
	.st115{fill:url(#SVGID_113_);}
	.st116{fill:url(#SVGID_114_);}
	.st117{fill:url(#SVGID_115_);}
	.st118{fill:url(#SVGID_116_);}
	.st119{fill:url(#SVGID_117_);}
	.st120{fill:url(#SVGID_118_);}
	.st121{fill:url(#SVGID_119_);}
	.st122{fill:url(#SVGID_120_);}
	.st123{fill:url(#SVGID_121_);}
	.st124{fill:#B71C46;}
	.st125{fill:#8D47C4;}
	.st126{fill:#20B9CB;}
	.st127{fill:#85CA55;}
	.st128{fill:#BB1E49;}
	.st129{fill:#319517;}
	.st130{fill:#621946;}
	.st131{fill:#891789;}
	.st132{fill:#641D49;}
	.st133{fill:#F17600;}
	.st134{fill:#040404;}
	.st135{fill:#030303;}
	.st136{fill:#050505;}
	.st137{fill:#0B0B0B;}
	.st138{fill:#0A0A0A;}
	.st139{fill:#080808;}
	.st140{fill:#070707;}
	.st141{fill:#060606;}
	.st142{fill:#0E0E0E;}
	.st143{fill:#0D0D0D;}
	.st144{fill:#0C0C0C;}
	.st145{fill:#121212;}
	.st146{fill:#1C1C1C;}
	.st147{fill:#141414;}
	.st148{fill:#0F0F0F;}
	.st149{fill:#111111;}
	.st150{fill:#161616;}
	.st151{fill:#191919;}
	.st152{fill:#171717;}
	.st153{fill:#101010;}
	.st154{fill:#090909;}
</style>
<linearGradient id="SVGID_1_" gradientUnits="userSpaceOnUse" x1="133.9676" y1="466.8623" x2="378.0324" y2="44.1296">
	<stop  offset="0" style="stop-color:#032D83"/>
	<stop  offset="1" style="stop-color:#DF6E99"/>
</linearGradient>
<circle class="st2" cx="256" cy="255.5" r="244"/>
<g>
	<path class="st1" d="M240,138.6c-20,0-40.1,0-60.1,0c-3.7,0-7.7,0.6-8-5.1c-0.2-6,3.9-5.2,7.6-5.2c40.7,0,81.3,0,122,0
		c3.5,0,7.1-0.5,7.1,4.9c0,5.6-3.7,5.6-7.6,5.6C280.6,138.6,260.3,138.7,240,138.6z"/>
	<path class="st1" d="M292.1,200.6c20.1,0,40.2,0,60.3,0c3.2,0,7.2-1,7.4,4.5c0.2,5.5-3.2,5.9-7.3,5.9c-40.8,0-81.5,0-122.3,0
		c-3.7,0-6.9-0.2-7-5.3c-0.1-5.3,3.2-5.2,6.8-5.2C250.8,200.6,271.4,200.6,292.1,200.6z"/>
	<path class="st1" d="M351.7,225.2c-41.6,0-83.2-0.1-124.8,0c-7.5,0-13.5-2.1-17.2-9c-7.5-14,1.2-28.9,17.1-28.9
		c41.6-0.1,83.2,0,124.8-0.1c3.7,0,8.6,1.6,8.6-5.1c0-6.6-4.9-5.1-8.6-5.1c-41.6-0.1-83.2-0.1-124.8-0.1
		c-18.7,0-29.3,10.7-29.4,29.3c-0.1,28.4,0,56.8,0,85.2c0,0,0,0,0.1,0c0,28.4-0.1,56.8,0,85.2c0.1,19.4,10.4,29.8,29.6,29.8
		c41.9,0,83.8-0.1,125.6-0.2c11.3,0,13.5-2.2,13.5-13.6c0-51.1,0-102.1,0-153.2C366.2,227.2,364.2,225.2,351.7,225.2z M223.8,388.7
		c0,2.3,1.6,5.5-1.5,6.8c-2.6,1.1-5.1-0.8-7.1-2.2c-4.7-3.2-7.5-7.8-7.5-13.7c0-49.3,0-98.6,0-148.6c5.8,2.1,13,2.5,15.2,6
		c2.6,4.2,0.9,11.1,0.9,16.8C223.9,298.7,223.9,343.7,223.8,388.7z M356,390.2c0,5.1-1,7-6.6,6.9c-36.5-0.3-72.9-0.2-109.4,0
		c-5.1,0-6.2-1.7-6.1-6.4c0.2-25,0.1-49.9,0.1-74.9c0-24.4,0.1-48.8-0.1-73.2c-0.1-5.4,1.1-7.3,6.9-7.2c36.2,0.3,72.3,0.3,108.5,0
		c5.4,0,6.7,1.4,6.7,6.7C355.8,291.5,355.8,340.8,356,390.2z"/>
	<path class="st1" d="M314.8,162.1c-0.6-8-5.8-9.4-12.6-9.3c-42.2,0.1-84.4,0-126.5,0.1c-7.2,0-13.3-1.8-16.8-8.3
		c-3.7-6.9-4-14.4-0.2-21.4c3.5-6.4,9.6-8.3,16.7-8.3c41.6,0.1,83.2,0.1,124.8,0c3.7,0,8.8,1.6,8.9-4.9c0.1-6-4.4-5.4-8.5-5.4
		c-41.6,0-83.2-0.1-124.8,0c-19.1,0-29.6,10.7-29.7,29.9c-0.1,28.1,0,56.2,0,84.4c0,0-0.1,0-0.1,0c0,27.8,0.6,55.7-0.2,83.5
		c-0.6,19.9,11.3,35.4,38.3,31.7c2.3-0.3,3.9-0.9,4.4-3.1c0.5-2,0.7-4.8-1.4-5.3c-4.9-1.2-4-4.8-4-8.1c-0.2-49.1-0.2-98.1-0.5-147.2
		c0-5.4,1.1-7.3,7-7.2c35.9,0.3,71.7,0.1,107.6,0.2c3.1,0,6.6-1.3,8.2,3.6c0.8,2.6,4.6,1.7,7,1C315.2,167,315,164.4,314.8,162.1z
		 M171,323.1c-2.8,1.2-5.5-0.9-7.8-2.6c-4.4-3.3-6.7-7.8-6.7-13.3c0-49.4,0-98.7,0-147.6c17.1-0.3,16.2,10.7,16.1,22.3
		c-0.4,44.8-0.1,89.5-0.2,134.3C172.3,318.5,173.8,321.8,171,323.1z"/>
	<path class="st1" d="M301.5,278.1c8.6,0,17.2,0,25.8,0c3.2,0,5.6,0.6,5.7,4.5c0.1,3.9-1.5,5.9-5.5,5.9c-17.8,0-35.5,0-53.3,0
		c-4.1,0-5.5-2.4-5.4-6.1c0.1-4.1,2.9-4.3,6-4.3C283.7,278.1,292.6,278.1,301.5,278.1z"/>
	<path class="st1" d="M303.8,328.1c7.7,0,15.5,0.1,23.2,0c3.7-0.1,6.2,0.7,6,5.1c-0.1,4-2.3,5.4-6.1,5.4c-14.9-0.1-29.8-0.1-44.7,0
		c-4.2,0-6.6-1.4-6.5-5.9c0.1-4.6,3.3-4.6,6.6-4.6C289.5,328.1,296.7,328.1,303.8,328.1z"/>
	<path class="st1" d="M307.7,313.1c-6.6,0-13.2-0.1-19.8,0c-3.6,0.1-5.3-1.5-5.3-5.1c0-3.4,1.3-5.4,5.1-5.4
		c13.5,0.1,26.9,0.1,40.4,0c3.9,0,4.9,2.3,4.9,5.6c0,3.6-1.9,5-5.5,4.9C320.9,312.9,314.3,313.1,307.7,313.1z"/>
</g>
</svg>
