<svg xmlns="http://www.w3.org/2000/svg" xmlns:xlink="http://www.w3.org/1999/xlink" viewBox="0 0 488 488"><defs><linearGradient id="a" x1="133.98" y1="744.85" x2="378.02" y2="322.15" gradientTransform="translate(-12 -289.5)" gradientUnits="userSpaceOnUse"><stop offset="0" stop-color="#032d83"/><stop offset="1" stop-color="#df6e99"/></linearGradient></defs><circle cx="244" cy="244" r="244" fill="url(#a)"/><path d="M115.2,125.9a102.12,102.12,0,1,1-30.1,72.2A102.22,102.22,0,0,1,115.2,125.9Zm72.3-19.8a92.36,92.36,0,1,0,65.1,27.2A91.79,91.79,0,0,0,187.5,106.1Z" transform="translate(-12 -11.5)" fill="#fff" stroke="#fff" stroke-miterlimit="10" stroke-width="0.5"/><path d="M267,313.6l35.3-35.2h0a5.13,5.13,0,0,1,7.1,0h0l92.7,93.1h0a2.18,2.18,0,0,1,.4.5,7.42,7.42,0,0,1-.4,9.9l-2.1-2h0l2.1,2.1h0l-32,31.9a7.34,7.34,0,0,1-5.2,2.1,7.51,7.51,0,0,1-5.2-2.1l3.5-3.5-3.6,3.5h0l-92.7-93.1h0a5.07,5.07,0,0,1,.1-7.2Zm38.8-24.5-28.3,28.1,87.3,87.7,28.3-28.1Z" transform="translate(-12 -11.5)" fill="#fff" stroke="#fff" stroke-miterlimit="10" stroke-width="0.5"/><path d="M260.7,267.4a5.13,5.13,0,0,0-7.1,0,5,5,0,0,0,0,7.1l29.8,29.9a5,5,0,1,0,7.1-7.1Z" transform="translate(-12 -11.5)" fill="#fff" stroke="#fff" stroke-miterlimit="10" stroke-width="0.5"/><path d="M238.9,156.7a5,5,0,0,0-10,0l-.2,83.5a5,5,0,0,0,10,0Z" transform="translate(-12 -11.5)" fill="#fff" stroke="#fff" stroke-miterlimit="10" stroke-width="0.5"/><path d="M207.9,178a5,5,0,0,0-10,0l-.1,62.1a5,5,0,0,0,10,0Z" transform="translate(-12 -11.5)" fill="#fff" stroke="#fff" stroke-miterlimit="10" stroke-width="0.5"/><path d="M176.8,194.9a5,5,0,0,0-10,0l-.1,45.1a5,5,0,0,0,10,0Z" transform="translate(-12 -11.5)" fill="#fff" stroke="#fff" stroke-miterlimit="10" stroke-width="0.5"/><path d="M145.7,208.4a5,5,0,0,0-10,0l-.1,31.6a5,5,0,0,0,10,0Z" transform="translate(-12 -11.5)" fill="#fff" stroke="#fff" stroke-miterlimit="10" stroke-width="0.5"/></svg>