<?xml version="1.0" encoding="utf-8"?>
<!-- Generator: Adobe Illustrator 23.0.3, SVG Export Plug-In . SVG Version: 6.00 Build 0)  -->
<svg version="1.1" id="Layer_1" xmlns="http://www.w3.org/2000/svg" xmlns:xlink="http://www.w3.org/1999/xlink" x="0px" y="0px"
	 viewBox="0 0 512 512" style="enable-background:new 0 0 512 512;" xml:space="preserve">
<style type="text/css">
	.st0{fill:#020202;}
	.st1{fill:#FFFFFF;}
	.st2{fill:url(#SVGID_1_);}
	.st3{fill:url(#SVGID_2_);}
	.st4{fill:url(#SVGID_3_);}
	.st5{fill:url(#SVGID_4_);}
	.st6{fill:url(#SVGID_5_);}
	.st7{fill:url(#SVGID_6_);}
	.st8{fill:url(#SVGID_7_);}
	.st9{fill:url(#SVGID_8_);}
	.st10{fill:url(#SVGID_9_);}
	.st11{fill:url(#SVGID_10_);}
	.st12{fill:url(#SVGID_11_);}
	.st13{fill:url(#SVGID_12_);}
	.st14{fill:url(#SVGID_13_);}
	.st15{fill:url(#SVGID_14_);}
	.st16{fill:url(#SVGID_15_);}
	.st17{fill:url(#SVGID_16_);}
	.st18{fill:#1B83B8;}
	.st19{fill:url(#SVGID_17_);}
	.st20{fill:url(#SVGID_18_);}
	.st21{fill:url(#SVGID_19_);}
	.st22{fill:url(#SVGID_20_);}
	.st23{fill:url(#SVGID_21_);}
	.st24{fill:url(#SVGID_22_);}
	.st25{fill:url(#SVGID_23_);}
	.st26{fill:url(#SVGID_24_);}
	.st27{fill:url(#SVGID_25_);}
	.st28{fill:url(#SVGID_26_);}
	.st29{fill:url(#SVGID_27_);}
	.st30{fill:url(#SVGID_28_);}
	.st31{fill:url(#SVGID_29_);}
	.st32{fill:url(#SVGID_30_);}
	.st33{fill:url(#SVGID_31_);}
	.st34{fill:url(#SVGID_32_);}
	.st35{fill:url(#SVGID_33_);}
	.st36{fill:url(#SVGID_34_);}
	.st37{fill:url(#SVGID_35_);}
	.st38{fill:url(#SVGID_36_);}
	.st39{fill:url(#SVGID_37_);}
	.st40{fill:url(#SVGID_38_);}
	.st41{fill:url(#SVGID_39_);}
	.st42{fill:url(#SVGID_40_);}
	.st43{fill:url(#SVGID_41_);}
	.st44{fill:url(#SVGID_42_);}
	.st45{fill:url(#SVGID_43_);}
	.st46{fill:url(#SVGID_44_);}
	.st47{fill:url(#SVGID_45_);}
	.st48{fill:url(#SVGID_46_);}
	.st49{fill:url(#SVGID_47_);}
	.st50{fill:url(#SVGID_48_);}
	.st51{fill:url(#SVGID_49_);}
	.st52{fill:url(#SVGID_50_);}
	.st53{fill:url(#SVGID_51_);}
	.st54{fill:url(#SVGID_52_);}
	.st55{fill:url(#SVGID_53_);}
	.st56{fill:url(#SVGID_54_);}
	.st57{fill:url(#SVGID_55_);}
	.st58{fill:url(#SVGID_56_);}
	.st59{fill:url(#SVGID_57_);}
	.st60{fill:url(#SVGID_58_);}
	.st61{fill:url(#SVGID_59_);}
	.st62{fill:url(#SVGID_60_);}
	.st63{fill:url(#SVGID_61_);}
	.st64{fill:url(#SVGID_62_);}
	.st65{fill:url(#SVGID_63_);}
	.st66{fill:url(#SVGID_64_);}
	.st67{fill:url(#SVGID_65_);}
	.st68{fill:url(#SVGID_66_);}
	.st69{fill:url(#SVGID_67_);}
	.st70{fill:url(#SVGID_68_);}
	.st71{fill:url(#SVGID_69_);}
	.st72{fill:url(#SVGID_70_);}
	.st73{fill:url(#SVGID_71_);}
	.st74{fill:url(#SVGID_72_);}
	.st75{fill:url(#SVGID_73_);}
	.st76{fill:url(#SVGID_74_);}
	.st77{fill:url(#SVGID_75_);}
	.st78{fill:url(#SVGID_76_);}
	.st79{fill:url(#SVGID_77_);}
	.st80{fill:url(#SVGID_78_);}
	.st81{fill:url(#SVGID_79_);}
	.st82{fill:url(#SVGID_80_);}
	.st83{fill:url(#SVGID_81_);}
	.st84{fill:url(#SVGID_82_);}
	.st85{fill:url(#SVGID_83_);}
	.st86{fill:url(#SVGID_84_);}
	.st87{fill:url(#SVGID_85_);}
	.st88{fill:url(#SVGID_86_);}
	.st89{fill:url(#SVGID_87_);}
	.st90{fill:url(#SVGID_88_);}
	.st91{fill:url(#SVGID_89_);}
	.st92{fill:url(#SVGID_90_);}
	.st93{fill:url(#SVGID_91_);}
	.st94{fill:url(#SVGID_92_);}
	.st95{fill:url(#SVGID_93_);}
	.st96{fill:url(#SVGID_94_);}
	.st97{fill:url(#SVGID_95_);}
	.st98{fill:url(#SVGID_96_);}
	.st99{fill:url(#SVGID_97_);}
	.st100{fill:url(#SVGID_98_);}
	.st101{fill:url(#SVGID_99_);}
	.st102{fill:url(#SVGID_100_);}
	.st103{fill:url(#SVGID_101_);}
	.st104{fill:url(#SVGID_102_);}
	.st105{fill:url(#SVGID_103_);}
	.st106{fill:url(#SVGID_104_);}
	.st107{fill:url(#SVGID_105_);}
	.st108{fill:url(#SVGID_106_);}
	.st109{fill:url(#SVGID_107_);}
	.st110{fill:url(#SVGID_108_);}
	.st111{fill:url(#SVGID_109_);}
	.st112{fill:url(#SVGID_110_);}
	.st113{fill:url(#SVGID_111_);}
	.st114{fill:url(#SVGID_112_);}
	.st115{fill:url(#SVGID_113_);}
	.st116{fill:url(#SVGID_114_);}
	.st117{fill:url(#SVGID_115_);}
	.st118{fill:url(#SVGID_116_);}
	.st119{fill:url(#SVGID_117_);}
	.st120{fill:url(#SVGID_118_);}
	.st121{fill:url(#SVGID_119_);}
	.st122{fill:url(#SVGID_120_);}
	.st123{fill:url(#SVGID_121_);}
	.st124{fill:#B71C46;}
	.st125{fill:#8D47C4;}
	.st126{fill:#20B9CB;}
	.st127{fill:#85CA55;}
	.st128{fill:#BB1E49;}
	.st129{fill:#319517;}
	.st130{fill:#621946;}
	.st131{fill:#891789;}
	.st132{fill:#641D49;}
	.st133{fill:#F17600;}
	.st134{fill:#040404;}
	.st135{fill:#030303;}
	.st136{fill:#050505;}
	.st137{fill:#0B0B0B;}
	.st138{fill:#0A0A0A;}
	.st139{fill:#080808;}
	.st140{fill:#070707;}
	.st141{fill:#060606;}
	.st142{fill:#0E0E0E;}
	.st143{fill:#0D0D0D;}
	.st144{fill:#0C0C0C;}
	.st145{fill:#121212;}
	.st146{fill:#1C1C1C;}
	.st147{fill:#141414;}
	.st148{fill:#0F0F0F;}
	.st149{fill:#111111;}
	.st150{fill:#161616;}
	.st151{fill:#191919;}
	.st152{fill:#171717;}
	.st153{fill:#101010;}
	.st154{fill:#090909;}
</style>
<linearGradient id="SVGID_1_" gradientUnits="userSpaceOnUse" x1="133.9676" y1="466.8623" x2="378.0324" y2="44.1296">
	<stop  offset="0" style="stop-color:#032D83"/>
	<stop  offset="1" style="stop-color:#DF6E99"/>
</linearGradient>
<circle class="st2" cx="256" cy="255.5" r="244"/>
<g>
	<path class="st1" d="M300.6,292.3c4.2-4.8,8-5.1,13.7-1.3c11.5,7.6,23.7,13.9,35.7,20.8c3.8,2.1,7.3,3.5,3.6,9.3
		c-3.1,4.8-5.1,5.1-9.7,2.3c-12.6-7.8-25.4-15.3-38.5-22.3c-4.2-2.3-5.1-4.9-4.5-9C300.9,292,300.6,292.3,300.6,292.3z"/>
	<path class="st1" d="M163.8,325.7c-4.1-0.1-4-4.2-5.9-6.4c-2-2.4-1.7-4.2,1.1-5.9c14.4-8.2,28.7-16.4,43-24.8
		c2.9-1.7,4.6-1.4,5.7,1.6c1,2.7,5.9,5.8,2.5,7.9C195.1,307.8,179.4,316.5,163.8,325.7z"/>
	<path class="st1" d="M262.6,182.1c0,7.1-0.3,14.2,0.1,21.2c0.3,5.4-1.4,7.3-7.1,7.3c-5.4-0.1-6.5-2.1-6.4-6.9
		c0.2-14.1,0.3-28.3,0-42.4c-0.1-5.2,1.6-6.7,6.6-6.5c4.5,0.1,7.3,0.6,7,6.2C262.3,168,262.6,175.1,262.6,182.1z"/>
	<g>
		<path class="st1" d="M300.9,292c-0.1,0-0.3,0-0.4,0c0,0.1,0,0.2,0.1,0.3L300.9,292z"/>
		<path class="st1" d="M303.2,284.5c10.1-25-0.3-53-24.3-65.2c-23.7-12-53.2-3.5-66.8,19.3c-13.7,23-7.5,52.7,14.3,68.1
			c21.7,15.4,51.6,11.4,69-9.2c1.6-1.9,2-5.1,5.1-5.5C300,289,302.2,286.9,303.2,284.5z M255.1,303.1c-21.3-0.2-37.9-17.6-37.5-39.2
			c0.4-20.5,18-37.6,38.5-37.4c21.1,0.2,38.4,17.8,38.1,38.9C294,286.7,276.8,303.3,255.1,303.1z"/>
	</g>
	<path class="st1" d="M125.3,304.8c-19.8-0.1-35.8,15.7-35.9,35.7c-0.1,19.9,15.5,35.7,35.5,36.2c19.4,0.4,35.7-15.9,35.8-35.8
		C160.9,320.9,145.1,304.9,125.3,304.8z M125.3,363.7c-12.8,0-23-10-23.1-22.9c-0.1-12.9,9.8-23.1,22.6-23.3
		c12.8-0.1,22.9,9.9,23,22.8C148,353.3,137.9,363.7,125.3,363.7z"/>
	<path class="st1" d="M255.9,78.3c-19.9,0-35.9,15.9-35.9,35.7c0,19.8,16.1,35.8,35.9,35.8c19.9-0.1,36-16.1,36.1-35.7
		C292,94.4,275.8,78.3,255.9,78.3z M256.2,137c-12.7,0.2-23.2-10-23.4-22.6c-0.2-12.6,10-23,22.8-23.2c12.7-0.2,23.3,10.1,23.5,22.6
		C279.3,126.2,268.9,136.8,256.2,137z"/>
	<path class="st1" d="M386.8,304.8c-19.7,0-35.9,16.2-36,35.8c-0.1,19.5,16.2,35.8,36,36c19.5,0.2,35.9-16.2,35.8-35.9
		C422.5,320.8,406.6,304.8,386.8,304.8z M386.6,363.9c-12.5-0.1-23-10.9-22.8-23.4c0.2-12.7,10.7-23,23.3-22.8
		c12.7,0.1,22.8,10.5,22.7,23.3C409.6,353.5,399,364,386.6,363.9z"/>
</g>
</svg>
