<svg xmlns="http://www.w3.org/2000/svg" xmlns:xlink="http://www.w3.org/1999/xlink" viewBox="0 0 488 488"><defs><linearGradient id="a" x1="133.98" y1="47.15" x2="378.02" y2="469.85" gradientTransform="matrix(1, 0, 0, -1, -12, 502.5)" gradientUnits="userSpaceOnUse"><stop offset="0" stop-color="#032d83"/><stop offset="1" stop-color="#df6e99"/></linearGradient></defs><circle cx="244" cy="244" r="244" fill="url(#a)"/><path d="M265.41,209.79l90-90L315.13,79.52l-90,90ZM306.21,152l-23.28-23.29L312.5,99.13l23.29,23.29ZM268,190.17l-23.29-23.28,29.58-29.58,23.29,23.28Z" transform="translate(-12 -11.5)" fill="#fff"/><path d="M73.57,321.08l40.27,40.27,90-90-40.28-40.28Zm81.08-17.52-23.29-23.28,29.58-29.59L184.23,274Zm-61.47,14.9,29.57-29.58L146,312.16l-29.57,29.58Z" transform="translate(-12 -11.5)" fill="#fff"/><polygon points="235.34 310.65 304.2 241.79 246.98 214.19 189.24 156.44 149.99 195.69 207.74 253.43 235.34 310.65" fill="#fff"/><rect x="152.22" y="174.54" width="42.04" height="9.27" transform="translate(-87.96 163.48) rotate(-45)" fill="#fff"/><path d="M271.28,352.79a75.55,75.55,0,0,0,75.56-75.56H338a66.77,66.77,0,0,1-66.7,66.69h0Z" transform="translate(-12 -11.5)" fill="#fff"/><path d="M271.6,381.42A103.86,103.86,0,0,0,375.47,277.55H366.6a95,95,0,0,1-95,95h0Z" transform="translate(-12 -11.5)" fill="#fff"/><path d="M273.35,409.45A130.14,130.14,0,0,0,403.5,279.31h-8.86A121.27,121.27,0,0,1,273.35,400.59h0Z" transform="translate(-12 -11.5)" fill="#fff"/></svg>