<?xml version="1.0" encoding="utf-8"?>
<!-- Generator: Adobe Illustrator 23.0.3, SVG Export Plug-In . SVG Version: 6.00 Build 0)  -->
<svg version="1.1" id="Layer_1" xmlns="http://www.w3.org/2000/svg" xmlns:xlink="http://www.w3.org/1999/xlink" x="0px" y="0px"
	 viewBox="0 0 512 512" style="enable-background:new 0 0 512 512;" xml:space="preserve">
<style type="text/css">
	.st0{fill:#020202;}
	.st1{fill:#FFFFFF;}
	.st2{fill:url(#SVGID_1_);}
	.st3{fill:url(#SVGID_2_);}
	.st4{fill:url(#SVGID_3_);}
	.st5{fill:url(#SVGID_4_);}
	.st6{fill:url(#SVGID_5_);}
	.st7{fill:url(#SVGID_6_);}
	.st8{fill:url(#SVGID_7_);}
	.st9{fill:url(#SVGID_8_);}
	.st10{fill:url(#SVGID_9_);}
	.st11{fill:url(#SVGID_10_);}
	.st12{fill:url(#SVGID_11_);}
	.st13{fill:url(#SVGID_12_);}
	.st14{fill:url(#SVGID_13_);}
	.st15{fill:url(#SVGID_14_);}
	.st16{fill:url(#SVGID_15_);}
	.st17{fill:url(#SVGID_16_);}
	.st18{fill:#1B83B8;}
	.st19{fill:url(#SVGID_17_);}
	.st20{fill:url(#SVGID_18_);}
	.st21{fill:url(#SVGID_19_);}
	.st22{fill:url(#SVGID_20_);}
	.st23{fill:url(#SVGID_21_);}
	.st24{fill:url(#SVGID_22_);}
	.st25{fill:url(#SVGID_23_);}
	.st26{fill:url(#SVGID_24_);}
	.st27{fill:url(#SVGID_25_);}
	.st28{fill:url(#SVGID_26_);}
	.st29{fill:url(#SVGID_27_);}
	.st30{fill:url(#SVGID_28_);}
	.st31{fill:url(#SVGID_29_);}
	.st32{fill:url(#SVGID_30_);}
	.st33{fill:url(#SVGID_31_);}
	.st34{fill:url(#SVGID_32_);}
	.st35{fill:url(#SVGID_33_);}
	.st36{fill:url(#SVGID_34_);}
	.st37{fill:url(#SVGID_35_);}
	.st38{fill:url(#SVGID_36_);}
	.st39{fill:url(#SVGID_37_);}
	.st40{fill:url(#SVGID_38_);}
	.st41{fill:url(#SVGID_39_);}
	.st42{fill:url(#SVGID_40_);}
	.st43{fill:url(#SVGID_41_);}
	.st44{fill:url(#SVGID_42_);}
	.st45{fill:url(#SVGID_43_);}
	.st46{fill:url(#SVGID_44_);}
	.st47{fill:url(#SVGID_45_);}
	.st48{fill:url(#SVGID_46_);}
	.st49{fill:url(#SVGID_47_);}
	.st50{fill:url(#SVGID_48_);}
	.st51{fill:url(#SVGID_49_);}
	.st52{fill:url(#SVGID_50_);}
	.st53{fill:url(#SVGID_51_);}
	.st54{fill:url(#SVGID_52_);}
	.st55{fill:url(#SVGID_53_);}
	.st56{fill:url(#SVGID_54_);}
	.st57{fill:url(#SVGID_55_);}
	.st58{fill:url(#SVGID_56_);}
	.st59{fill:url(#SVGID_57_);}
	.st60{fill:url(#SVGID_58_);}
	.st61{fill:url(#SVGID_59_);}
	.st62{fill:url(#SVGID_60_);}
	.st63{fill:url(#SVGID_61_);}
	.st64{fill:url(#SVGID_62_);}
	.st65{fill:url(#SVGID_63_);}
	.st66{fill:url(#SVGID_64_);}
	.st67{fill:url(#SVGID_65_);}
	.st68{fill:url(#SVGID_66_);}
	.st69{fill:url(#SVGID_67_);}
	.st70{fill:url(#SVGID_68_);}
	.st71{fill:url(#SVGID_69_);}
	.st72{fill:url(#SVGID_70_);}
	.st73{fill:url(#SVGID_71_);}
	.st74{fill:url(#SVGID_72_);}
	.st75{fill:url(#SVGID_73_);}
	.st76{fill:url(#SVGID_74_);}
	.st77{fill:url(#SVGID_75_);}
	.st78{fill:url(#SVGID_76_);}
	.st79{fill:url(#SVGID_77_);}
	.st80{fill:url(#SVGID_78_);}
	.st81{fill:url(#SVGID_79_);}
	.st82{fill:url(#SVGID_80_);}
	.st83{fill:url(#SVGID_81_);}
	.st84{fill:url(#SVGID_82_);}
	.st85{fill:url(#SVGID_83_);}
	.st86{fill:url(#SVGID_84_);}
	.st87{fill:url(#SVGID_85_);}
	.st88{fill:url(#SVGID_86_);}
	.st89{fill:url(#SVGID_87_);}
	.st90{fill:url(#SVGID_88_);}
	.st91{fill:url(#SVGID_89_);}
	.st92{fill:url(#SVGID_90_);}
	.st93{fill:url(#SVGID_91_);}
	.st94{fill:url(#SVGID_92_);}
	.st95{fill:url(#SVGID_93_);}
	.st96{fill:url(#SVGID_94_);}
	.st97{fill:url(#SVGID_95_);}
	.st98{fill:url(#SVGID_96_);}
	.st99{fill:url(#SVGID_97_);}
	.st100{fill:url(#SVGID_98_);}
	.st101{fill:url(#SVGID_99_);}
	.st102{fill:url(#SVGID_100_);}
	.st103{fill:url(#SVGID_101_);}
	.st104{fill:url(#SVGID_102_);}
	.st105{fill:url(#SVGID_103_);}
	.st106{fill:url(#SVGID_104_);}
	.st107{fill:url(#SVGID_105_);}
	.st108{fill:url(#SVGID_106_);}
	.st109{fill:url(#SVGID_107_);}
	.st110{fill:url(#SVGID_108_);}
	.st111{fill:url(#SVGID_109_);}
	.st112{fill:url(#SVGID_110_);}
	.st113{fill:url(#SVGID_111_);}
	.st114{fill:url(#SVGID_112_);}
	.st115{fill:url(#SVGID_113_);}
	.st116{fill:url(#SVGID_114_);}
	.st117{fill:url(#SVGID_115_);}
	.st118{fill:url(#SVGID_116_);}
	.st119{fill:url(#SVGID_117_);}
	.st120{fill:url(#SVGID_118_);}
	.st121{fill:url(#SVGID_119_);}
	.st122{fill:url(#SVGID_120_);}
	.st123{fill:url(#SVGID_121_);}
	.st124{fill:#B71C46;}
	.st125{fill:#8D47C4;}
	.st126{fill:#20B9CB;}
	.st127{fill:#85CA55;}
	.st128{fill:#BB1E49;}
	.st129{fill:#319517;}
	.st130{fill:#621946;}
	.st131{fill:#891789;}
	.st132{fill:#641D49;}
	.st133{fill:#F17600;}
	.st134{fill:#040404;}
	.st135{fill:#030303;}
	.st136{fill:#050505;}
	.st137{fill:#0B0B0B;}
	.st138{fill:#0A0A0A;}
	.st139{fill:#080808;}
	.st140{fill:#070707;}
	.st141{fill:#060606;}
	.st142{fill:#0E0E0E;}
	.st143{fill:#0D0D0D;}
	.st144{fill:#0C0C0C;}
	.st145{fill:#121212;}
	.st146{fill:#1C1C1C;}
	.st147{fill:#141414;}
	.st148{fill:#0F0F0F;}
	.st149{fill:#111111;}
	.st150{fill:#161616;}
	.st151{fill:#191919;}
	.st152{fill:#171717;}
	.st153{fill:#101010;}
	.st154{fill:#090909;}
</style>
<linearGradient id="SVGID_1_" gradientUnits="userSpaceOnUse" x1="133.9676" y1="466.8623" x2="378.0324" y2="44.1296">
	<stop  offset="0" style="stop-color:#032D83"/>
	<stop  offset="1" style="stop-color:#DF6E99"/>
</linearGradient>
<circle class="st2" cx="256" cy="255.5" r="244"/>
<g>
	<path class="st1" d="M379.5,227.2c6.2,0,12.3-0.3,18.5,0.1c3.8,0.3,7.4,2.3,7.3,6.8c0,4.4-3.4,6.8-7.2,6.9
		c-13.1,0.3-26.3,0.3-39.4-0.1c-3.6-0.1-7.1-2.7-6.8-7.3c0.2-4,3.6-5.8,6.7-6.1c6.9-0.6,13.9-0.2,20.9-0.2
		C379.5,227.3,379.5,227.3,379.5,227.2z"/>
	<path class="st1" d="M261.5,108.1c0,6.1,0.2,12.2-0.1,18.3c-0.2,4.3-2,8.4-6.8,8.8c-5.3,0.4-6.9-4.3-7-8.3
		c-0.4-12.2-0.4-24.4-0.1-36.6c0.1-4.1,1.6-8.8,6.6-8.8c5.4,0.1,7.1,4.7,7.3,9.5C261.7,96.7,261.5,102.4,261.5,108.1z"/>
	<path class="st1" d="M386.7,160.6c-0.9,3.9-2.9,6.6-5.8,8.3c-9.9,5.8-19.8,11.6-29.9,17.1c-4.1,2.2-9,3.6-12-1.4
		c-2.6-4.5,0.8-7.9,4.4-10c10.5-6.3,21.1-12.7,32-18.4C380.5,153.4,384.9,154.9,386.7,160.6z"/>
	<path class="st1" d="M333,111.1c-6.9,11.1-12.5,25.1-22.5,36.6c-1.9,2.2-4.7,3-7.6,0.7c-2.7-2.1-3.1-5.2-2-7.7
		c5.7-13,12.9-25.3,21.3-36.8c1.5-2.1,4.4-3.9,7.6-2.1C332.5,103.4,333.4,106,333,111.1z"/>
	<path class="st1" d="M182.4,100.6c4.5,0.6,6.8,2.7,8.6,5.6c5.8,9.9,11.6,19.8,17.2,29.8c2.3,4.1,3.9,8.9-1.2,11.8
		c-5.2,2.9-8.5-1.2-10.9-5.1c-5.9-9.8-11.8-19.7-17.2-29.8C176.2,107.8,176.1,102.7,182.4,100.6z"/>
	<path class="st1" d="M255.2,429.4c-5.3,0-10.6,0-15.9,0c-5,0-7.5-2.3-7.4-7.5c0.1-5.2,2.7-7.4,7.6-7.4c11.5,0,22.9-0.1,34.3,0.1
		c5.2,0.1,7.1,3.5,6.9,8.2c-0.2,4.4-2.6,6.6-7,6.6C267.5,429.4,261.3,429.4,255.2,429.4C255.2,429.4,255.2,429.4,255.2,429.4z"/>
	<path class="st1" d="M173.4,178.9c-0.4,7.1-5.2,8.2-9.5,6c-12-6.1-23.6-13-35.1-19.9c-3-1.8-4.2-5.2-2.7-8.6c1.3-3,4.5-4.4,7.2-3.3
		c13.5,5.9,26.2,13.2,38.1,21.9C172.5,175.8,172.9,177.7,173.4,178.9z"/>
	<path class="st1" d="M134.4,223.4c6.1,0,12.3-0.2,18.4,0.1c4,0.2,7.4,2.1,7.6,6.5c0.1,3.7-2.7,6.4-6.2,6.5
		c-13.9,0.3-27.8,0.3-41.7-0.1c-3.4-0.1-6.2-2.9-5.8-6.7c0.3-3.7,3.3-5.7,6.8-5.9c6.9-0.3,13.9-0.1,20.9-0.1
		C134.4,223.6,134.4,223.5,134.4,223.4z"/>
	<path class="st1" d="M238.4,157.9c-60.5,11.2-89.6,80.5-54.6,130.3c8.3,11.8,18.5,23.4,21.4,37.1c6.1,28.5,22.6,35.6,43.4,29.5
		c15.3,0,25.6-0.3,35.9,0.1c5.8,0.2,9.3-1.5,10.7-7.4c5.7-23.6,18.8-43.5,32.7-62.9c4.9-6.8,8.3-14.1,10.2-22.1
		C352.4,201.9,299.7,146.6,238.4,157.9z M323.5,259.2c-1.3,5.7-3.5,10.7-7,15.5c-13.3,18.2-25.3,37.3-32.9,58.8
		c-1.8,5.2-4.5,6.9-9.8,6.5c-6.5-0.4-13.1-0.1-23-0.1c-17,5.7-27-3.3-32.7-22.5c-4.1-13.6-13.3-25.3-21.6-37.1
		c-28.9-41.3-5.8-98.1,44-107.7C291.5,162.7,335.5,208.6,323.5,259.2z"/>
	<path class="st1" d="M296.7,377.5c-0.2-8.6-4.9-12.7-13.2-12.9c-8.6-0.2-17.3,0-25.9,0c-9.5,0-18.9,0-28.4,0
		c-9,0-13.6,4.7-13.9,13.6c-0.2,4.1-0.1,8.2,0,12.3c0.3,13.1,3.7,16.5,17.1,16.6c15.6,0.1,31.2,0.1,46.8,0
		c14.7-0.1,17.3-2.7,17.4-17.3C296.7,385.8,296.8,381.6,296.7,377.5z M276.9,392.4c-13.9-0.1-27.7-0.2-41.6,0
		c-5.2,0.1-5.8-2.4-5.9-6.7c-0.1-4.7,1.3-6.6,6.2-6.4c7.3,0.3,14.7,0.1,22,0.1c6.5,0,13,0.2,19.6-0.1c5-0.2,6.1,2.1,6.1,6.6
		C283.3,390.7,281.5,392.5,276.9,392.4z"/>
</g>
</svg>
